P2
# Created by GIMP version 2.10.34 PNM plug-in
8 80
255
0
0
255
255
255
0
0
0
0
255
0
0
255
255
0
0
255
255
0
0
0
255
255
0
255
255
0
0
0
255
255
0
255
255
0
0
0
255
255
0
0
255
255
0
0
255
0
0
0
0
255
255
255
0
0
0
0
0
0
0
0
0
0
0
0
0
255
255
0
0
0
0
0
255
255
255
0
0
0
0
0
0
255
255
0
0
0
0
0
0
255
255
0
0
0
0
0
0
255
255
0
0
0
0
0
0
255
255
0
0
0
0
255
255
255
255
255
255
0
0
0
0
0
0
0
0
0
0
0
255
255
255
255
255
0
0
255
255
0
0
0
255
255
0
0
0
0
0
255
255
255
0
0
0
255
255
255
255
0
0
0
255
255
255
255
0
0
0
255
255
255
0
0
0
0
0
255
255
255
255
255
255
255
0
0
0
0
0
0
0
0
0
0
255
255
255
255
255
255
0
0
0
0
0
255
255
0
0
0
0
0
255
255
0
0
0
0
0
255
255
255
255
0
0
0
0
0
0
0
255
255
0
255
255
0
0
0
255
255
0
0
255
255
255
255
255
0
0
0
0
0
0
0
0
0
0
0
0
0
255
255
255
0
0
0
0
255
255
255
255
0
0
0
255
255
0
255
255
0
0
255
255
0
0
255
255
0
0
255
255
255
255
255
255
255
0
0
0
0
0
255
255
0
0
0
0
0
0
255
255
0
0
0
0
0
0
0
0
0
0
255
255
255
255
255
255
0
0
255
255
0
0
0
0
0
0
255
255
255
255
255
255
0
0
0
0
0
0
0
255
255
0
0
0
0
0
0
255
255
0
255
255
0
0
0
255
255
0
0
255
255
255
255
255
0
0
0
0
0
0
0
0
0
0
0
0
255
255
255
255
0
0
0
255
255
0
0
0
0
0
255
255
0
0
0
0
0
0
255
255
255
255
255
255
0
0
255
255
0
0
0
255
255
0
255
255
0
0
0
255
255
0
0
255
255
255
255
255
0
0
0
0
0
0
0
0
0
0
255
255
255
255
255
255
255
0
255
255
0
0
0
255
255
0
0
0
0
0
255
255
0
0
0
0
0
255
255
0
0
0
0
0
255
255
0
0
0
0
0
0
255
255
0
0
0
0
0
0
255
255
0
0
0
0
0
0
0
0
0
0
0
0
0
255
255
255
255
255
0
0
255
255
0
0
0
255
255
0
255
255
0
0
0
255
255
0
0
255
255
255
255
255
0
0
255
255
0
0
0
255
255
0
255
255
0
0
0
255
255
0
0
255
255
255
255
255
0
0
0
0
0
0
0
0
0
0
0
255
255
255
255
255
0
0
255
255
0
0
0
255
255
0
255
255
0
0
0
255
255
0
0
255
255
255
255
255
255
0
0
0
0
0
0
255
255
0
0
0
0
0
255
255
0
0
0
255
255
255
255
0
0
0
0
0
0
0
0
0
0
0
